 http://www.imdb.com/title/tt1411277/
 
http://www.moviemeter.nl/film/57499

User Rating:6.5/10 - 38 votes

Nederland
Drama
100 minuten

Geregisseerd door Dave Schram
Met Gaite Jansen, Martijn Lakemeier en Ruud Feltkamp

Het zit de 15-jarige Eva (Gaite Jansen) niet mee. Met haar nieuwe stiefvader kan ze absoluut niet opschieten. Ze is bang dat hij haar wil misbruiken, maar haar moeder gelooft haar niet. Als bijverdienste ontwerpt ze T-shirts, die ze zaterdags in de printshop drukt. Op Mees (Martijn Lakemeier), de leuke jongen die daar werkt, is ze eigenlijk wel een beetje verliefd. Hij vindt haar ook erg aardig. Maar door een misverstand denkt ze dat hij al een vriendin heeft. Ze wil graag met iemand praten. Iemand die haar serieus neemt. Maar haar beste vriendin heeft daar nu geen tijd voor. Die heeft net een nieuwe vriend die haar helemaal opslokt. Als bij een optreden van een muziekband de vlotte knappe Ricardo aandacht aan haar besteedt, is ze al snel helemaal verloren. Hij pakt haar helemaal in met leuke kleren en wil haar zelfs voorstellen aan een bekende Parijse modeontwerper. Mees vindt het maar niets.

Info:

Covers bijgesloten

General
Complete name                    : Lover of Losers-AC3-5,1-DVDRip-2009 Nederlands.avi
Format                           : AVI
Format/Info                      : Audio Video Interleave
File size                        : 1.36 GiB
Duration                         : 1h 42mn
Overall bit rate                 : 1 906 Kbps
Writing application              : VirtualDubMod 1.5.4.1 (build 2178/release)
Writing library                  : VirtualDubMod build 2178/release

Video
ID                               : 0
Format                           : MPEG-4 Visual
Format profile                   : Simple@L3
Format settings, BVOP            : No
Format settings, QPel            : No
Format settings, GMC             : No warppoints
Format settings, Matrix          : Default (H.263)
Codec ID                         : XVID
Codec ID/Hint                    : XviD
Duration                         : 1h 42mn
Bit rate                         : 1 448 Kbps
Width                            : 640 pixels
Height                           : 352 pixels
Display aspect ratio             : 16:9
Frame rate                       : 25.000 fps
Resolution                       : 24 bits
Colorimetry                      : 4:2:0
Scan type                        : Progressive
Bits/(Pixel*Frame)               : 0.257
Stream size                      : 1.03 GiB (76%)
Writing library                  : XviD 1.1.2 (UTC 2006-11-01)

Audio
ID                               : 1
Format                           : AC-3
Format/Info                      : Audio Coding 3
Codec ID                         : 2000
Duration                         : 1h 42mn
Bit rate mode                    : Constant
Bit rate                         : 448 Kbps
Channel(s)                       : 6 channels
Channel positions                : Front: L C R, Surround: L R, LFE
Sampling rate                    : 48.0 KHz
Stream size                      : 328 MiB (24%)
Alignment                        : Split accross interleaves
Interleave, duration             : 40 ms (1.00 video frame)
Interleave, preload duration     : 500 ms

Veel plezier met deze film.